<?xml version="1.0" encoding="UTF-8" standalone="no"?>
<!DOCTYPE svg PUBLIC "-//W3C//DTD SVG 1.1//EN" "http://www.w3.org/Graphics/SVG/1.1/DTD/svg11.dtd">
<svg xmlns="http://www.w3.org/2000/svg" xmlns:xlink="http://www.w3.org/1999/xlink" version="1.1"
	width="1080" height="1080" viewBox="0 0 1080 1080" xml:space="preserve">
<desc>Created with Fabric.js 5.2.4</desc>
<defs>
</defs>
<g transform="matrix(1 0 0 1 540 540)" id="e0fa7eb5-1c30-4914-a96f-cefa47a0196f"  >
<rect style="stroke: none; stroke-width: 1; stroke-dasharray: none; stroke-linecap: butt; stroke-dashoffset: 0; stroke-linejoin: miter; stroke-miterlimit: 4; fill: rgb(255,255,255); fill-rule: nonzero; opacity: 1; visibility: hidden;" vector-effect="non-scaling-stroke"  x="-540" y="-540" rx="0" ry="0" width="1080" height="1080" />
</g>
<g transform="matrix(1 0 0 1 540 540)" id="83a04719-ec3f-41b5-b211-fc7dee2a4c61"  >
</g>
<g transform="matrix(1.06 0 0 1.06 161.26 584.13)"  >
<g style="" vector-effect="non-scaling-stroke"   >
		<g transform="matrix(0.13 0 0 -0.13 198.67 -197.35)"  >
<path style="stroke: none; stroke-width: 1; stroke-dasharray: none; stroke-linecap: butt; stroke-dashoffset: 0; stroke-linejoin: miter; stroke-miterlimit: 4; fill: rgb(0,0,0); fill-rule: nonzero; opacity: 1;" vector-effect="non-scaling-stroke"  transform=" translate(-5125, -5259.68)" d="M 5265 7549 C 5069 7529 4954 7502 4805 7440 C 4778 7429 4753 7431 4615 7459 C 4349 7511 4189 7524 3795 7524 C 3513 7524 3426 7521 3350 7507 C 3169 7476 2973 7406 2983 7377 C 2985 7369 3043 7361 3161 7354 C 3359 7341 3390 7336 3480 7308 C 3589 7273 3648 7240 3690 7191 C 3763 7107 3840 6924 3875 6751 C 3903 6617 3910 6441 3910 5786 L 3910 5138 L 3543 5143 C 3273 5147 3154 5152 3095 5163 C 3014 5179 2990 5174 2990 5145 C 2990 5128 3134 5050 3225 5017 C 3369 4966 3606 4930 3806 4930 L 3910 4930 L 3910 4486 C 3910 4242 3915 3962 3920 3864 C 3937 3580 3974 3282 3995 3268 C 4010 3257 4095 3259 4126 3271 C 4174 3289 4261 3372 4307 3442 C 4426 3626 4449 3819 4450 4621 L 4450 5067 L 4485 5073 C 4504 5076 4565 5097 4621 5119 C 4677 5142 4724 5159 4724 5158 C 4725 5156 4732 5133 4739 5105 C 4769 4986 4869 4810 5044 4570 C 5086 4512 5153 4420 5192 4365 C 5309 4202 5537 3903 5629 3792 C 5676 3735 5737 3661 5764 3627 L 5813 3567 L 5784 3543 C 5684 3460 5403 3329 5225 3282 C 4948 3208 4635 3172 4110 3155 C 3872 3146 3260 3165 3140 3185 C 3088 3193 3030 3200 3013 3200 C 2983 3200 2980 3197 2980 3171 C 2980 3148 2987 3139 3016 3125 C 3299 2991 3804 2936 4435 2970 C 4908 2996 5299 3073 5607 3201 C 5728 3251 5959 3369 5982 3392 C 5997 3407 6006 3402 6125 3301 C 6362 3099 6520 3042 6804 3053 C 6911 3057 6967 3065 7036 3084 C 7143 3113 7270 3168 7270 3184 C 7270 3191 7232 3200 7173 3207 C 6954 3234 6804 3310 6550 3525 C 6503 3565 6459 3604 6453 3612 C 6443 3624 6458 3643 6534 3721 C 6696 3886 6822 4097 6871 4288 C 6912 4444 6886 4676 6814 4814 C 6736 4962 6451 5242 6293 5325 C 6272 5336 6221 5363 6180 5386 C 6083 5439 5900 5516 5730 5574 C 5656 5600 5589 5623 5582 5625 C 5573 5628 5606 5670 5673 5740 C 5888 5967 6003 6197 6026 6446 C 6038 6582 5987 6757 5897 6883 C 5803 7014 5631 7159 5475 7238 C 5399 7276 5249 7335 5184 7352 L 5135 7365 L 5205 7371 C 5355 7385 5527 7380 5627 7361 C 5905 7307 6180 7123 6361 6870 C 6460 6733 6565 6499 6605 6326 C 6624 6246 6634 6043 6622 5958 C 6615 5904 6616 5890 6627 5890 C 6634 5890 6640 5897 6640 5905 C 6640 5914 6661 5957 6686 6002 C 6773 6155 6795 6258 6788 6471 C 6782 6631 6761 6721 6696 6864 C 6607 7060 6409 7274 6211 7390 C 5981 7524 5617 7585 5265 7549 z M 4185 7354 C 4547 7318 4905 7222 5047 7124 C 5171 7038 5333 6832 5386 6690 C 5412 6621 5414 6605 5414 6475 C 5414 6362 5409 6319 5392 6255 C 5346 6088 5243 5919 5085 5751 C 4973 5632 4767 5466 4635 5388 C 4569 5349 4501 5308 4483 5298 L 4452 5280 L 4447 5932 C 4443 6534 4441 6593 4422 6691 C 4360 7019 4261 7193 4045 7353 C 4023 7370 4014 7380 4025 7376 C 4036 7372 4108 7362 4185 7354 z M 5631 5355 C 5763 5288 5890 5199 5994 5100 C 6223 4881 6324 4662 6324 4390 C 6323 4258 6289 4125 6222 3993 C 6197 3942 6173 3900 6170 3900 C 6167 3900 6106 3960 6035 4033 C 5913 4156 5697 4417 5556 4609 C 5523 4655 5463 4736 5424 4789 C 5309 4947 5217 5088 5156 5203 C 5124 5263 5100 5313 5102 5314 C 5131 5339 5266 5433 5298 5452 L 5342 5478 L 5439 5440 C 5493 5419 5579 5381 5631 5355 z" stroke-linecap="round" />
</g>
		<g transform="matrix(0.13 0 0 -0.13 -480.67 496.68)"  >
<path style="stroke: none; stroke-width: 1; stroke-dasharray: none; stroke-linecap: butt; stroke-dashoffset: 0; stroke-linejoin: miter; stroke-miterlimit: 4; fill: rgb(0,0,0); fill-rule: nonzero; opacity: 1;" vector-effect="non-scaling-stroke"  transform=" translate(-30, -54.5)" d="M 27 103 C 2 99 0 95 0 49 C 0 1 1 0 30 0 C 60 0 60 1 60 55 C 60 85 59 109 58 109 C 56 108 43 105 27 103 z" stroke-linecap="round" />
</g>
</g>
</g>
</svg>