<?xml version="1.0" standalone="no"?>
<!DOCTYPE svg PUBLIC "-//W3C//DTD SVG 20010904//EN"
 "http://www.w3.org/TR/2001/REC-SVG-20010904/DTD/svg10.dtd">
<svg version="1.0" xmlns="http://www.w3.org/2000/svg"
 width="1024.000000pt" height="1024.000000pt" viewBox="0 0 1024.000000 1024.000000"
 preserveAspectRatio="xMidYMid meet">

<g transform="translate(0.000000,1024.000000) scale(0.100000,-0.100000)"
fill="#000000" stroke="none">
<path d="M5265 7549 c-196 -20 -311 -47 -460 -109 -27 -11 -52 -9 -190 19
-266 52 -426 65 -820 65 -282 0 -369 -3 -445 -17 -181 -31 -377 -101 -367
-130 2 -8 60 -16 178 -23 198 -13 229 -18 319 -46 109 -35 168 -68 210 -117
73 -84 150 -267 185 -440 28 -134 35 -310 35 -965 l0 -648 -367 5 c-270 4
-389 9 -448 20 -81 16 -105 11 -105 -18 0 -17 144 -95 235 -128 144 -51 381
-87 581 -87 l104 0 0 -444 c0 -244 5 -524 10 -622 17 -284 54 -582 75 -596 15
-11 100 -9 131 3 48 18 135 101 181 171 119 184 142 377 143 1179 l0 446 35 6
c19 3 80 24 136 46 56 23 103 40 103 39 1 -2 8 -25 15 -53 30 -119 130 -295
305 -535 42 -58 109 -150 148 -205 117 -163 345 -462 437 -573 47 -57 108
-131 135 -165 l49 -60 -29 -24 c-100 -83 -381 -214 -559 -261 -277 -74 -590
-110 -1115 -127 -238 -9 -850 10 -970 30 -52 8 -110 15 -127 15 -30 0 -33 -3
-33 -29 0 -23 7 -32 36 -46 283 -134 788 -189 1419 -155 473 26 864 103 1172
231 121 50 352 168 375 191 15 15 24 10 143 -91 237 -202 395 -259 679 -248
107 4 163 12 232 31 107 29 234 84 234 100 0 7 -38 16 -97 23 -219 27 -369
103 -623 318 -47 40 -91 79 -97 87 -10 12 5 31 81 109 162 165 288 376 337
567 41 156 15 388 -57 526 -78 148 -363 428 -521 511 -21 11 -72 38 -113 61
-97 53 -280 130 -450 188 -74 26 -141 49 -148 51 -9 3 24 45 91 115 215 227
330 457 353 706 12 136 -39 311 -129 437 -94 131 -266 276 -422 355 -76 38
-226 97 -291 114 l-49 13 70 6 c150 14 322 9 422 -10 278 -54 553 -238 734
-491 99 -137 204 -371 244 -544 19 -80 29 -283 17 -368 -7 -54 -6 -68 5 -68 7
0 13 7 13 15 0 9 21 52 46 97 87 153 109 256 102 469 -6 160 -27 250 -92 393
-89 196 -287 410 -485 526 -230 134 -594 195 -946 159z m-1080 -195 c362 -36
720 -132 862 -230 124 -86 286 -292 339 -434 26 -69 28 -85 28 -215 0 -113 -5
-156 -22 -220 -46 -167 -149 -336 -307 -504 -112 -119 -318 -285 -450 -363
-66 -39 -134 -80 -152 -90 l-31 -18 -5 652 c-4 602 -6 661 -25 759 -62 328
-161 502 -377 662 -22 17 -31 27 -20 23 11 -4 83 -14 160 -22z m1446 -1999
c132 -67 259 -156 363 -255 229 -219 330 -438 330 -710 -1 -132 -35 -265 -102
-397 -25 -51 -49 -93 -52 -93 -3 0 -64 60 -135 133 -122 123 -338 384 -479
576 -33 46 -93 127 -132 180 -115 158 -207 299 -268 414 -32 60 -56 110 -54
111 29 25 164 119 196 138 l44 26 97 -38 c54 -21 140 -59 192 -85z"/>
<path d="M27 103 c-25 -4 -27 -8 -27 -54 0 -48 1 -49 30 -49 30 0 30 1 30 55
0 30 -1 54 -2 54 -2 -1 -15 -4 -31 -6z"/>
</g>
</svg>
